<svg width="16" height="16" viewBox="0 0 16 16" fill="none" xmlns="http://www.w3.org/2000/svg">
<g clip-path="url(#clip0_1250_12213)">
<path d="M7.99961 0L6.34961 2.475L7.99961 4.625V0Z" fill="#16B156"/>
<path d="M8 0L9.65 2.475L8 4.625V0Z" fill="#285D3B"/>
<path d="M8.00002 8.0003L10.8714 6.91908L10.9757 3.90465L8.00002 8.0003Z" fill="#144927"/>
<path d="M10.8711 6.91797L10.9753 3.90354L12.702 1.52705L12.4875 4.69317L10.8711 6.91797Z" fill="#285D3B"/>
<path d="M8 8L8.14098 4.93501L10.9757 3.90435L8 8Z" fill="#63CA53"/>
<path d="M10.9753 3.90519L8.14064 4.93585L9.75705 2.71105L12.7019 1.5287L10.9753 3.90519Z" fill="#16B156"/>
<path d="M15.6075 5.52823L12.7438 4.7238L11.2089 6.95743L15.6075 5.52823Z" fill="#16B156"/>
<path d="M15.6094 5.52734L13.7654 7.8614L11.2107 6.95655L15.6094 5.52734Z" fill="#285D3B"/>
<path d="M7.99998 8.00056L9.9156 10.3973L12.8147 9.56496L7.99998 8.00056Z" fill="#144927"/>
<path d="M9.91602 10.3965L12.8151 9.56412L15.6089 10.4719L12.5314 11.2463L9.91602 10.3965Z" fill="#285D3B"/>
<path d="M8 8L10.9585 7.18695L12.8147 9.5644L8 8Z" fill="#63CA53"/>
<path d="M12.8151 9.56356L10.959 7.18611L13.5744 8.0359L15.6089 10.4713L12.8151 9.56356Z" fill="#16B156"/>
<path d="M12.7022 14.4718L12.5823 11.4996L9.98372 10.7301L12.7022 14.4718Z" fill="#16B156"/>
<path d="M12.7031 14.4727L9.91348 13.4402L9.98462 10.731L12.7031 14.4727Z" fill="#285D3B"/>
<path d="M8 13.0625L9.6875 10.5625V13.3125L8 16V13.0625Z" fill="#16B156"/>
<path d="M6.3125 10.5625L8 13.0625V16L6.3125 13.3125V10.5625Z" fill="#285D3B"/>
<path d="M8 8L6.3125 10.5625L8 13.0625V8Z" fill="#144927"/>
<path d="M8 8L9.6875 10.5625L8 13.0625V8Z" fill="#63CA53"/>
<path d="M3.29793 14.4716L6.08758 13.4391L6.01644 10.7299L3.29793 14.4716Z" fill="#16B156"/>
<path d="M3.29688 14.4727L3.41677 11.5005L6.01538 10.731L3.29688 14.4727Z" fill="#285D3B"/>
<path d="M5.04102 7.1875L3.18484 9.56495L0.391112 10.4727L2.42561 8.0373L5.04102 7.1875Z" fill="#285D3B"/>
<path d="M3.18486 9.56356L6.08397 10.3959L3.46856 11.2457L0.39113 10.4713L3.18486 9.56356Z" fill="#16B156"/>
<path d="M8 8L6.08438 10.3968L3.18528 9.5644L8 8Z" fill="#63CA53"/>
<path d="M7.99998 7.99944L5.04143 7.18639L3.18526 9.56384L7.99998 7.99944Z" fill="#144927"/>
<path d="M0.390737 5.52841L2.23472 7.86247L4.78937 6.95762L0.390737 5.52841Z" fill="#16B156"/>
<path d="M0.390625 5.52734L3.25437 4.72292L4.78926 6.95655L0.390625 5.52734Z" fill="#285D3B"/>
<path d="M7.85938 4.93555L5.0247 3.90489L3.29808 1.5284L6.24297 2.71075L7.85938 4.93555Z" fill="#285D3B"/>
<path d="M5.02468 3.90519L5.12892 6.91962L3.51251 4.69483L3.29806 1.5287L5.02468 3.90519Z" fill="#16B156"/>
<path d="M8.00002 7.9997L7.85903 4.93471L5.02436 3.90405L8.00002 7.9997Z" fill="#144927"/>
<path d="M8 8L5.12858 6.91878L5.02434 3.90435L8 8Z" fill="#63CA53"/>
</g>
<defs>
<clipPath id="clip0_1250_12213">
<rect width="16" height="16" fill="white"/>
</clipPath>
</defs>
</svg>
