<svg width="16" height="16" viewBox="0 0 16 16" fill="none" xmlns="http://www.w3.org/2000/svg">
<path d="M12 2.5H4C3.17157 2.5 2.5 3.17157 2.5 4V12C2.5 12.8284 3.17157 13.5 4 13.5H12C12.8284 13.5 13.5 12.8284 13.5 12V4C13.5 3.17157 12.8284 2.5 12 2.5Z" fill="#04F364" stroke="#0B851A"/>
<path d="M2.5 9.3352L4.1822 7.66853C4.56052 7.29369 5.16625 7.28113 5.55979 7.63997L11.9861 13.4995" stroke="#0B851A"/>
<path d="M10 7.5C10.8284 7.5 11.5 6.82843 11.5 6C11.5 5.17157 10.8284 4.5 10 4.5C9.17157 4.5 8.5 5.17157 8.5 6C8.5 6.82843 9.17157 7.5 10 7.5Z" stroke="#0B851A"/>
</svg>
