<svg xmlns="http://www.w3.org/2000/svg" width="16" height="16" viewBox="0 0 16 16"><path fill="#ab47bc" d="M12.079 2H2v10.079c0 1.06.86 1.92 1.92 1.92h8.159c1.06 0 1.92-.86 1.92-1.92V3.92c0-1.06-.86-1.92-1.92-1.92M7.56 9.988h-.887v-.155q0-.247-.106-.365a.32.32 0 0 0-.26-.124q-.217 0-.304.149a.95.95 0 0 0-.081.44v1.755q0 .55.385.557.18 0 .273-.13a.63.63 0 0 0 .093-.365v-.131h.887v.137q0 .428-.167.713a1.08 1.08 0 0 1-.458.428 1.45 1.45 0 0 1-.658.142q-.57 0-.906-.31-.335-.309-.335-.923V9.785q0-.608.354-.926.36-.314.942-.315.565 0 .894.322.333.323.334.962zm2.445 2.716q-.328.334-.912.334c-.584 0-.686-.113-.894-.34q-.309-.341-.322-.98h.837q.007.564.397.565.199 0 .279-.125.081-.124.081-.397a.6.6 0 0 0-.105-.359.9.9 0 0 0-.354-.254l-.31-.149q-.416-.197-.602-.471-.18-.273-.18-.762 0-.546.316-.887.324-.34.888-.34.545 0 .842.334.306.335.318.962h-.806a.86.86 0 0 0-.081-.397q-.069-.137-.267-.137-.354 0-.354.421 0 .211.087.337a.8.8 0 0 0 .304.209l.297.131q.46.21.664.521.204.31.204.829.002.62-.327.955m2.705 0q-.328.334-.912.334c-.584 0-.686-.113-.894-.34q-.309-.341-.323-.98h.838q.007.564.397.565.199 0 .28-.125.08-.124.081-.397a.6.6 0 0 0-.106-.359.9.9 0 0 0-.354-.254l-.31-.149q-.416-.197-.602-.471-.18-.273-.18-.762 0-.546.316-.887.324-.34.888-.34.546 0 .844.334.303.335.317.962h-.806a.86.86 0 0 0-.081-.397q-.069-.137-.267-.137-.354 0-.354.421 0 .211.087.337a.8.8 0 0 0 .304.209l.297.131q.46.21.664.521.205.31.205.829 0 .62-.329.955" data-iconColor="CSS 2"/></svg>